<svg width="242" height="198" viewBox="0 0 242 198" fill="none" xmlns="http://www.w3.org/2000/svg">
<path d="M145.86 182.393C149.342 184.726 153.309 196.522 153.309 196.522C153.309 196.522 140.891 197.331 137.41 194.999C136.582 194.444 135.871 193.732 135.318 192.903C134.765 192.073 134.381 191.143 134.188 190.165C133.995 189.187 133.996 188.181 134.192 187.204C134.388 186.226 134.774 185.297 135.329 184.469C135.884 183.641 136.597 182.931 137.427 182.379C138.256 181.826 139.187 181.442 140.164 181.25C141.142 181.057 142.149 181.059 143.126 181.255C144.103 181.451 145.032 181.838 145.86 182.393V182.393Z" fill="#F1F1F1"/>
<path d="M153.45 196.433L153.255 196.588C146.159 187.686 135.451 184.611 135.344 184.581L135.411 184.341C135.519 184.371 146.302 187.466 153.45 196.433Z" fill="white"/>
<path d="M164.48 177.687C164.258 183.484 153.239 196.721 153.239 196.721C153.239 196.721 143.271 182.676 143.492 176.881C143.599 174.098 144.807 171.471 146.851 169.579C148.894 167.686 151.606 166.683 154.389 166.79C157.172 166.897 159.799 168.105 161.692 170.149C163.584 172.192 164.587 174.904 164.48 177.687Z" fill="#F1F1F1"/>
<path d="M153.446 196.823L153.122 196.706C158.461 181.882 154.311 167.032 154.268 166.884L154.599 166.789C154.642 166.938 158.824 181.891 153.446 196.823Z" fill="white"/>
<path d="M124.914 144.706H30.4734C28.7909 144.704 27.1779 144.034 25.9882 142.845C24.7984 141.655 24.1292 140.042 24.1273 138.359V30.433C24.1292 28.7505 24.7984 27.1374 25.9882 25.9477C27.1779 24.758 28.7909 24.0888 30.4734 24.0869H124.914C126.596 24.0888 128.209 24.758 129.399 25.9477C130.589 27.1374 131.258 28.7505 131.26 30.433V138.359C131.258 140.042 130.589 141.655 129.399 142.845C128.209 144.034 126.596 144.704 124.914 144.706Z" fill="#E6E6E6"/>
<path d="M120.501 139.416H34.8865C33.3926 139.415 31.9604 138.821 30.9041 137.764C29.8477 136.708 29.2535 135.276 29.2518 133.782V35.0107C29.2535 33.5168 29.8477 32.0846 30.9041 31.0283C31.9604 29.9719 33.3926 29.3777 34.8865 29.376H120.501C121.995 29.3777 123.427 29.9719 124.483 31.0283C125.54 32.0846 126.134 33.5168 126.136 35.0107V133.782C126.134 135.276 125.54 136.708 124.483 137.764C123.427 138.821 121.995 139.415 120.501 139.416Z" fill="white"/>
<path d="M117.095 43.4338H73.9048C73.7197 43.4341 73.5363 43.3979 73.3652 43.3272C73.1941 43.2565 73.0385 43.1528 72.9075 43.022C72.7765 42.8912 72.6726 42.7358 72.6017 42.5648C72.5308 42.3937 72.4943 42.2104 72.4943 42.0253C72.4943 41.8401 72.5308 41.6568 72.6017 41.4858C72.6726 41.3147 72.7765 41.1594 72.9075 41.0286C73.0385 40.8977 73.1941 40.794 73.3652 40.7233C73.5363 40.6527 73.7197 40.6164 73.9048 40.6167H117.095C117.28 40.6164 117.463 40.6527 117.634 40.7233C117.806 40.794 117.961 40.8977 118.092 41.0286C118.223 41.1594 118.327 41.3147 118.398 41.4858C118.469 41.6568 118.505 41.8401 118.505 42.0253C118.505 42.2104 118.469 42.3937 118.398 42.5648C118.327 42.7358 118.223 42.8912 118.092 43.022C117.961 43.1528 117.806 43.2565 117.634 43.3272C117.463 43.3979 117.28 43.4341 117.095 43.4338Z" fill="#E4E4E4"/>
<path d="M117.095 48.9999H73.9047C73.5311 48.9999 73.1728 48.8515 72.9087 48.5873C72.6445 48.3231 72.4961 47.9648 72.4961 47.5913C72.4961 47.2177 72.6445 46.8594 72.9087 46.5952C73.1728 46.331 73.5311 46.1826 73.9047 46.1826H117.095C117.468 46.1826 117.827 46.331 118.091 46.5952C118.355 46.8594 118.503 47.2177 118.503 47.5913C118.503 47.9648 118.355 48.3231 118.091 48.5873C117.827 48.8515 117.468 48.9999 117.095 48.9999Z" fill="#E4E4E4"/>
<path d="M92.6265 54.5658H73.9047C73.5311 54.5658 73.1728 54.4174 72.9087 54.1532C72.6445 53.8891 72.4961 53.5308 72.4961 53.1572C72.4961 52.7836 72.6445 52.4253 72.9087 52.1611C73.1728 51.8969 73.5311 51.7485 73.9047 51.7485H92.6265C93.0001 51.7485 93.3584 51.8969 93.6226 52.1611C93.8868 52.4253 94.0352 52.7836 94.0352 53.1572C94.0352 53.5308 93.8868 53.8891 93.6226 54.1532C93.3584 54.4174 93.0001 54.5658 92.6265 54.5658Z" fill="#E4E4E4"/>
<path d="M111.887 77.0459H43.7031C43.5179 77.0462 43.3345 77.0099 43.1634 76.9392C42.9923 76.8686 42.8368 76.7649 42.7058 76.634C42.5747 76.5032 42.4708 76.3478 42.3999 76.1768C42.329 76.0058 42.2925 75.8225 42.2925 75.6373C42.2925 75.4522 42.329 75.2688 42.3999 75.0978C42.4708 74.9268 42.5747 74.7714 42.7058 74.6406C42.8368 74.5098 42.9923 74.4061 43.1634 74.3354C43.3345 74.2647 43.5179 74.2285 43.7031 74.2288H111.887C112.072 74.2285 112.255 74.2647 112.426 74.3354C112.597 74.4061 112.753 74.5098 112.884 74.6406C113.015 74.7714 113.119 74.9268 113.19 75.0978C113.261 75.2688 113.297 75.4522 113.297 75.6373C113.297 75.8225 113.261 76.0058 113.19 76.1768C113.119 76.3478 113.015 76.5032 112.884 76.634C112.753 76.7649 112.597 76.8686 112.426 76.9392C112.255 77.0099 112.072 77.0462 111.887 77.0459Z" fill="#E4E4E4"/>
<path d="M111.887 82.6118H43.7031C43.3295 82.6118 42.9712 82.4634 42.707 82.1992C42.4428 81.9351 42.2944 81.5768 42.2944 81.2032C42.2944 80.8296 42.4428 80.4713 42.707 80.2071C42.9712 79.943 43.3295 79.7946 43.7031 79.7946H111.887C112.26 79.7946 112.618 79.943 112.883 80.2071C113.147 80.4713 113.295 80.8296 113.295 81.2032C113.295 81.5768 113.147 81.9351 112.883 82.1992C112.618 82.4634 112.26 82.6118 111.887 82.6118Z" fill="#E4E4E4"/>
<path d="M111.887 95.2463H43.7032C43.3297 95.2463 42.9714 95.0979 42.7072 94.8338C42.4431 94.5696 42.2947 94.2113 42.2947 93.8378C42.2947 93.4642 42.4431 93.1059 42.7072 92.8418C42.9714 92.5776 43.3297 92.4292 43.7032 92.4292H111.887C112.26 92.4292 112.619 92.5776 112.883 92.8418C113.147 93.1059 113.295 93.4642 113.295 93.8378C113.295 94.2113 113.147 94.5696 112.883 94.8338C112.619 95.0979 112.26 95.2463 111.887 95.2463Z" fill="#E4E4E4"/>
<path d="M111.887 100.812H43.7031C43.3295 100.812 42.9712 100.664 42.707 100.4C42.4428 100.136 42.2944 99.7772 42.2944 99.4036C42.2944 99.03 42.4428 98.6717 42.707 98.4076C42.9712 98.1434 43.3295 97.995 43.7031 97.995H111.887C112.26 97.995 112.618 98.1434 112.883 98.4076C113.147 98.6717 113.295 99.03 113.295 99.4036C113.295 99.7772 113.147 100.136 112.883 100.4C112.618 100.664 112.26 100.812 111.887 100.812Z" fill="#E4E4E4"/>
<path d="M111.887 113.447H43.7032C43.3297 113.447 42.9714 113.298 42.7072 113.034C42.4431 112.77 42.2947 112.412 42.2947 112.038C42.2947 111.665 42.4431 111.306 42.7072 111.042C42.9714 110.778 43.3297 110.63 43.7032 110.63H111.887C112.26 110.63 112.619 110.778 112.883 111.042C113.147 111.306 113.295 111.665 113.295 112.038C113.295 112.412 113.147 112.77 112.883 113.034C112.619 113.298 112.26 113.447 111.887 113.447Z" fill="#E4E4E4"/>
<path d="M111.887 119.013H43.7031C43.3295 119.013 42.9712 118.864 42.707 118.6C42.4428 118.336 42.2944 117.978 42.2944 117.604C42.2944 117.23 42.4428 116.872 42.707 116.608C42.9712 116.344 43.3295 116.195 43.7031 116.195H111.887C112.26 116.195 112.618 116.344 112.883 116.608C113.147 116.872 113.295 117.23 113.295 117.604C113.295 117.978 113.147 118.336 112.883 118.6C112.618 118.864 112.26 119.013 111.887 119.013Z" fill="#E4E4E4"/>
<path d="M111.875 134.43H93.1528C92.7792 134.43 92.4209 134.282 92.1567 134.018C91.8926 133.753 91.7441 133.395 91.7441 133.022C91.7441 132.648 91.8926 132.29 92.1567 132.025C92.4209 131.761 92.7792 131.613 93.1528 131.613H111.875C112.248 131.613 112.606 131.761 112.871 132.025C113.135 132.29 113.283 132.648 113.283 133.022C113.283 133.395 113.135 133.753 112.871 134.018C112.606 134.282 112.248 134.43 111.875 134.43Z" />
<path d="M61.9491 47.7562C61.9529 50.7813 60.9288 53.7179 59.0447 56.0845C58.4352 56.8548 57.7414 57.5544 56.9762 58.1702C54.8879 59.8642 52.3364 60.8876 49.6562 61.1062C49.2914 61.1378 48.9236 61.1522 48.553 61.1522C47.8186 61.1523 47.0855 61.0918 46.361 60.9712C46.1055 60.931 45.8555 60.8821 45.6055 60.8247C45.1705 60.7279 44.7408 60.608 44.3185 60.4656C42.9488 60.0097 41.6623 59.3344 40.5091 58.4661C40.2017 58.2363 39.9059 57.9921 39.6186 57.7335C39.2672 57.4219 38.9344 57.09 38.6217 56.7395C38.5384 56.6476 38.455 56.5528 38.3747 56.458C36.9729 54.8174 35.9883 52.8623 35.5048 50.7592C35.0213 48.6562 35.0531 46.4674 35.5976 44.3793C36.1421 42.2912 37.1831 40.3656 38.632 38.7665C40.0809 37.1673 41.8947 35.9419 43.9191 35.1947C45.9435 34.4474 48.1185 34.2004 50.259 34.4747C52.3994 34.749 54.4418 35.5365 56.2124 36.77C57.983 38.0036 59.4292 39.6467 60.428 41.5596C61.4269 43.4724 61.9487 45.5983 61.949 47.7562L61.9491 47.7562Z" fill="#E4E4E4"/>
<path d="M48.0868 52.3279C51.1187 52.3279 53.5765 49.8701 53.5765 46.8383C53.5765 43.8064 51.1187 41.3486 48.0868 41.3486C45.055 41.3486 42.5972 43.8064 42.5972 46.8383C42.5972 49.8701 45.055 52.3279 48.0868 52.3279Z" fill="#9E616A"/>
<path d="M54.1982 44.1623C54.223 43.6717 54.0846 43.1868 53.8046 42.7833L53.6063 42.5018C52.8909 41.1228 51.7103 39.8818 50.8456 38.974C50.1963 38.2931 49.5471 37.9656 48.9236 37.9972C48.4699 38.0296 48.0474 38.2403 47.7486 38.5833C46.9276 38.5331 46.1098 38.7236 45.3954 39.1313C44.681 39.539 44.1011 40.1463 43.7267 40.8786C41.0981 42.2662 41.8823 46.3629 41.8909 46.4059L42.5259 47.4718L42.5977 47.3367C42.5977 47.3339 42.6063 47.3224 42.6178 47.2994C42.7414 47.0782 43.4136 45.8486 43.8675 45.0701C44.0332 44.8045 44.2535 44.5773 44.5139 44.4036C44.939 44.1131 45.4277 43.9289 45.9388 43.8664L47.335 43.6854L46.8064 44.4783H50.6099L52.0722 44.3059C52.2187 44.9063 53.3794 47.2362 53.5201 47.5177L53.5316 47.5407L53.6091 47.6987L54.043 46.5065C54.2963 45.7516 54.3498 44.944 54.1982 44.1623Z" fill="#2F2E41"/>
<path d="M40.5495 58.4948C40.7851 58.1845 42.006 56.7366 44.8156 55.9695L46.3038 54.3119L52.2706 53.361L55.3072 55.0387L59.0447 56.0845C58.4353 56.8548 57.7415 57.5544 56.9763 58.1701C54.888 59.8642 52.3365 60.8876 49.6563 61.1062C49.2915 61.1378 48.9238 61.1521 48.5532 61.1521C47.8188 61.1523 47.0856 61.0917 46.3612 60.9711C46.1055 60.9309 45.8556 60.8821 45.6057 60.8246C45.1706 60.7278 44.741 60.6079 44.3186 60.4655C42.9644 60.0156 41.6917 59.3501 40.5495 58.4948C40.5351 58.4861 40.5236 58.4746 40.5093 58.466L40.5495 58.4948Z" />
<path d="M153.786 7.67178H1.6011C1.37509 7.67153 1.15841 7.58164 0.998604 7.42183C0.838795 7.26202 0.748904 7.04534 0.748657 6.81934V1.80507C0.748904 1.57907 0.838795 1.36239 0.998604 1.20258C1.15841 1.04277 1.37509 0.952883 1.6011 0.952637H153.786C154.012 0.952883 154.229 1.04277 154.389 1.20258C154.549 1.36239 154.638 1.57907 154.639 1.80507V6.81934C154.638 7.04534 154.549 7.26202 154.389 7.42183C154.229 7.58164 154.012 7.67153 153.786 7.67178Z" />
<path d="M5.6956 5.27786C6.364 5.27786 6.90585 4.73601 6.90585 4.06761C6.90585 3.39921 6.364 2.85736 5.6956 2.85736C5.0272 2.85736 4.48535 3.39921 4.48535 4.06761C4.48535 4.73601 5.0272 5.27786 5.6956 5.27786Z" fill="white"/>
<path d="M10.2893 5.27786C10.9578 5.27786 11.4996 4.73601 11.4996 4.06761C11.4996 3.39921 10.9578 2.85736 10.2893 2.85736C9.62095 2.85736 9.0791 3.39921 9.0791 4.06761C9.0791 4.73601 9.62095 5.27786 10.2893 5.27786Z" fill="white"/>
<path d="M14.8832 5.27786C15.5516 5.27786 16.0935 4.73601 16.0935 4.06761C16.0935 3.39921 15.5516 2.85736 14.8832 2.85736C14.2148 2.85736 13.673 3.39921 13.673 4.06761C13.673 4.73601 14.2148 5.27786 14.8832 5.27786Z" fill="white"/>
<path d="M149.285 3.23462H143.996C143.892 3.23373 143.793 3.19206 143.721 3.11867C143.648 3.04528 143.607 2.94613 143.607 2.84278C143.607 2.73944 143.648 2.64028 143.721 2.56689C143.793 2.4935 143.892 2.45183 143.996 2.45094H149.285C149.337 2.4505 149.388 2.46031 149.436 2.4798C149.484 2.49929 149.528 2.52809 149.565 2.56452C149.601 2.60095 149.631 2.64429 149.65 2.69205C149.67 2.73981 149.681 2.79104 149.681 2.84278C149.681 2.89452 149.67 2.94575 149.65 2.99351C149.631 3.04127 149.601 3.08462 149.565 3.12105C149.528 3.15748 149.484 3.18627 149.436 3.20576C149.388 3.22525 149.337 3.23506 149.285 3.23462Z" fill="white"/>
<path d="M149.285 4.70404H143.995C143.891 4.70404 143.792 4.66276 143.718 4.58927C143.645 4.51579 143.604 4.41612 143.604 4.3122C143.604 4.20828 143.645 4.10861 143.718 4.03513C143.792 3.96165 143.891 3.92036 143.995 3.92036H149.285C149.337 3.91992 149.388 3.92973 149.436 3.94922C149.484 3.96871 149.528 3.99751 149.564 4.03394C149.601 4.07036 149.63 4.11371 149.65 4.16147C149.67 4.20923 149.68 4.26046 149.68 4.3122C149.68 4.36394 149.67 4.41517 149.65 4.46293C149.63 4.51069 149.601 4.55404 149.564 4.59047C149.528 4.6269 149.484 4.65569 149.436 4.67518C149.388 4.69468 149.337 4.70448 149.285 4.70404Z" fill="white"/>
<path d="M149.285 6.17345H143.995C143.892 6.17261 143.793 6.13096 143.72 6.05756C143.648 5.98417 143.607 5.88498 143.607 5.78161C143.607 5.67824 143.648 5.57905 143.72 5.50566C143.793 5.43226 143.892 5.39061 143.995 5.38977H149.285C149.389 5.39061 149.487 5.43226 149.56 5.50566C149.633 5.57905 149.674 5.67824 149.674 5.78161C149.674 5.88498 149.633 5.98417 149.56 6.05756C149.487 6.13096 149.389 6.17261 149.285 6.17345Z" fill="white"/>
<path d="M191.066 135.795C190.823 135.53 190.64 135.215 190.532 134.872C190.423 134.529 190.391 134.166 190.438 133.809C190.485 133.453 190.609 133.111 190.803 132.807C190.996 132.504 191.253 132.246 191.557 132.053L189.54 123.544L193.809 125.103L195.069 132.945C195.36 133.476 195.446 134.096 195.31 134.686C195.175 135.277 194.827 135.797 194.334 136.148C193.84 136.499 193.235 136.657 192.633 136.592C192.031 136.527 191.473 136.243 191.066 135.795Z" fill="#9E616A"/>
<path d="M180.801 100.135L182.514 104.54C182.514 104.54 181.78 108.945 183.004 109.924C184.227 110.903 183.738 110.903 183.738 111.637C183.78 112.164 183.933 112.676 184.186 113.14C184.439 113.604 184.786 114.009 185.206 114.329C186.185 115.064 190.59 129.992 190.59 129.992H194.995C194.853 128.854 194.853 127.703 194.995 126.566C195.24 124.853 194.261 120.448 193.772 119.713C193.282 118.979 193.772 118 193.772 116.532C193.772 115.064 192.793 114.329 192.793 111.882C192.793 109.435 189.856 90.3461 190.101 88.1435C190.346 85.941 187.654 83.9832 187.654 83.9832H185.206L180.801 100.135Z" fill="#E4E4E4"/>
<path d="M192.067 193.208H188.811L187.263 180.651L192.067 180.651L192.067 193.208Z" fill="#9E616A"/>
<path d="M192.897 196.364L182.4 196.364V196.231C182.4 195.148 182.83 194.108 183.596 193.342C184.363 192.576 185.402 192.145 186.486 192.145H186.486L188.403 190.691L191.981 192.146L192.897 192.146L192.897 196.364Z" fill="#2F2E41"/>
<path d="M162.284 193.115L159.227 191.997L162.086 179.671L166.599 181.322L162.284 193.115Z" fill="#9E616A"/>
<path d="M161.98 196.364L152.121 192.757L152.167 192.633C152.539 191.615 153.3 190.787 154.283 190.331C155.266 189.874 156.39 189.827 157.408 190.199L157.408 190.199L159.708 189.492L162.569 192.087L163.429 192.402L161.98 196.364Z" fill="#2F2E41"/>
<path d="M184.894 134.488C184.894 134.488 182.692 145.256 186.363 144.277C190.033 143.298 188.565 133.998 188.565 133.998L184.894 134.488Z" fill="#A0616A"/>
<path d="M168.742 125.555C168.742 125.555 165.805 129.471 165.805 131.673C165.805 133.876 164.826 153.454 164.826 153.454C164.826 153.454 157.396 182.609 158.864 184.077C160.333 185.545 165.472 187.014 166.206 186.279C166.94 185.545 173.392 155.412 173.392 155.412L179.51 139.015L185.139 162.509L185.628 187.471C185.628 187.471 191.746 188.94 192.97 187.961C194.194 186.982 194.438 163.243 192.97 154.923C191.502 146.602 193.215 127.513 193.215 127.513L168.742 125.555Z" fill="#2F2E41"/>
<path d="M178.557 73.3057C182.611 73.3057 185.899 70.0187 185.899 65.9639C185.899 61.9091 182.611 58.6221 178.557 58.6221C174.502 58.6221 171.215 61.9091 171.215 65.9639C171.215 70.0187 174.502 73.3057 178.557 73.3057Z" fill="#9E616A"/>
<path d="M169.232 83.9514C169.232 83.9514 171.345 80.8016 175.506 76.6413C177.708 75.9071 181.525 76.335 182.848 76.6413C188.966 84.7173 189.351 84.1806 190.944 88.693C191.357 89.8631 191.563 90.9873 191.379 91.905C190.645 95.5759 192.97 125.31 193.215 126.289C193.46 127.268 195.173 128.492 193.46 128.492C191.747 128.492 165.805 127.513 166.295 126.779C166.784 126.045 169.232 83.9514 169.232 83.9514Z" fill="#E4E4E4"/>
<path opacity="0.1" d="M168.111 126.456L175.472 110.259L171.792 127.485L168.111 126.456Z" fill="black"/>
<path d="M176.335 72.7656C177.023 72.2541 177.656 71.6732 178.224 71.0321C178.795 70.3853 179.152 69.5782 179.247 68.7208C179.289 68.2934 179.222 67.8623 179.052 67.4678C178.882 67.0732 178.616 66.728 178.277 66.4643C177.577 65.9703 176.511 65.9991 175.931 66.6285C176.211 65.722 176.467 64.6529 175.899 63.8928C175.382 63.201 174.418 63.0834 173.585 62.8554C171.979 62.4082 170.597 61.3786 169.709 59.9675L171.123 60.2602L170.965 59.2519L172.137 59.6594L172.148 58.255L173.357 58.9319C174.838 57.5741 176.79 56.8469 178.798 56.9046C179.811 56.9215 180.804 57.1939 181.683 57.6966C182.565 58.2065 183.232 59.0177 183.563 59.9808C184.186 59.3345 185.296 59.3845 186.038 59.8896C186.78 60.3947 187.215 61.2398 187.514 62.0858C188.107 63.7084 188.245 65.4621 187.913 67.1573C187.572 68.8565 186.656 70.3866 185.32 71.4905C184.093 72.4271 182.632 73.0082 181.097 73.1704C179.568 73.3289 178.025 73.2629 176.515 72.9745" fill="#2F2E41"/>
<path d="M165.819 135.763C166.062 135.498 166.245 135.183 166.353 134.84C166.462 134.497 166.494 134.134 166.447 133.778C166.4 133.421 166.276 133.079 166.083 132.775C165.889 132.472 165.632 132.215 165.328 132.021L167.345 123.512L163.077 125.071L161.816 132.913C161.525 133.445 161.439 134.064 161.575 134.655C161.711 135.245 162.058 135.765 162.552 136.116C163.045 136.468 163.65 136.626 164.252 136.56C164.855 136.495 165.412 136.212 165.819 135.763V135.763Z" fill="#9E616A"/>
<path d="M171.679 83.9514H169.232C169.232 83.9514 166.54 85.9092 166.784 88.1118C167.029 90.3143 164.092 109.403 164.092 111.85C164.092 114.298 163.113 115.032 163.113 116.5C163.113 117.969 163.603 118.948 163.113 119.682C162.624 120.416 161.645 124.821 161.89 126.534C162.032 127.672 162.032 128.823 161.89 129.96H166.295C166.295 129.96 170.7 115.032 171.679 114.298C172.099 113.977 172.447 113.572 172.7 113.108C172.953 112.644 173.105 112.132 173.147 111.606C173.147 110.871 172.658 110.871 173.881 109.893C175.105 108.914 174.371 104.509 174.371 104.509L176.084 100.103L171.679 83.9514Z" fill="#E4E4E4"/>
<path d="M240.908 197.047H106.663C106.618 197.047 106.574 197.038 106.532 197.021C106.49 197.004 106.452 196.979 106.421 196.947C106.389 196.915 106.363 196.877 106.346 196.836C106.329 196.794 106.32 196.75 106.32 196.705C106.32 196.66 106.329 196.615 106.346 196.574C106.363 196.532 106.389 196.494 106.421 196.463C106.452 196.431 106.49 196.406 106.532 196.388C106.574 196.371 106.618 196.363 106.663 196.363H240.908C240.953 196.363 240.998 196.371 241.04 196.388C241.081 196.406 241.119 196.431 241.151 196.463C241.183 196.494 241.208 196.532 241.225 196.574C241.242 196.615 241.251 196.66 241.251 196.705C241.251 196.75 241.242 196.794 241.225 196.836C241.208 196.877 241.183 196.915 241.151 196.947C241.119 196.979 241.081 197.004 241.04 197.021C240.998 197.038 240.953 197.047 240.908 197.047Z" fill="#CACACA"/>
</svg>
